<?xml version="1.0" encoding="UTF-8"?>
<svg id="Layer_1" xmlns="http://www.w3.org/2000/svg" version="1.1" viewBox="0 0 2258 737">
  <!-- Generator: Adobe Illustrator 29.6.1, SVG Export Plug-In . SVG Version: 2.1.1 Build 9)  -->
  <defs>
    <style>
      .st0 {
        fill: none;
      }

      .st1 {
        isolation: isolate;
        opacity: .5;
      }

      .st2 {
        fill: #00253a;
      }

      .st3, .st4 {
        fill: #10bbe6;
      }

      .st4 {
        stroke: #2670be;
      }
    </style>
  </defs>
  <path class="st2" d="M221.8,39.3C278.6,6.6,346.7-7.1,416.2,5.2c157.3,27.7,262.6,178.1,234.8,335.4-27.7,157.3-178.1,262.6-335.4,234.8-44.6-7.9-85-25.6-119.4-50.5,133.1-54,266.2-108,399.3-162,23.2-9.4,26.9-41,6.4-55.5-126.7-89.4-253.4-178.7-380.1-268.1h0Z"/>
  <path class="st2" d="M188.7,61.4c-55,42.5-94.9,104.8-107.9,178.6C54.2,391,27.6,541.9,1,692.8c14.7,2.6,29.4,5.2,44.1,7.8,59.4,10.5,117.3-35.3,129.1-102.2,4.1-23.2,41.3-234.4,78.6-445.5-21.3-30.5-42.6-61-64-91.4h-.1Z"/>
  <path class="st0" d="M540,141.4c6.8-32.1-13.7-63.6-45.6-70.3-32-6.7-63.3,13.8-70.1,45.9-6.8,32.1,13.7,63.6,45.6,70.3,32,6.7,63.3-13.8,70.1-45.9Z"/>
  <path class="st2" d="M745.4.6c-27.5,161.5-55.1,322.9-82.1,484.4,0,33,11.2,58.7,33.7,77.2s53.5,27.7,93,27.7,56.5-1.8,79.2-5.2c17.9-2.8,45.6-9.2,69.6-17.6-20.9-27-45.7-66-56.3-97.2h-18.1c-18.4,0-28.8-20.8-28.8-46.4,14.8-78.4,33.2-189.7,52.3-307.4,8.1-49.7-29.5-97.3-84.1-107.1-28.2-5.1-49.8-8.4-58.3-8.4h-.1Z"/>
  <path class="st2" d="M1351.3,520.4c-66.1,48.3-140.6,69.9-210.4,69.9s-84.2-7.8-118.6-23.3c-34.4-15.6-61-37.7-79.8-66.3-18.8-28.6-28.2-62.2-28.2-100.9s10.7-85.7,32-121.6c21.3-35.9,51.3-64,90-84.4,38.7-20.3,83.1-30.5,133.3-30.5s80.6,7.7,112.2,23,55.7,36.7,72.3,64c16.6,27.4,24.9,58.9,24.9,94.5s-3,46.4-9,71.6h-288.5c3.5,17.1,11.8,29.4,24.9,36.9,13,7.5,31.1,11.3,54.2,11.3,34.1,0,64-9.5,89.6-28.6,16.9,14.1,67.5,56.3,101.2,84.5h0ZM1162,279.3c-18.6,0-34,4.9-46.3,14.7-12.3,9.8-21.5,23.2-27.5,40.3h134.8c0-17.1-5.5-30.5-16.6-40.3-11-9.8-25.9-14.7-44.4-14.7h0Z"/>
  <path class="st2" d="M1719.4,225.6c-12.5,62-22.8,112.8-22.8,112.8-5.4,26.6-14.4,46.4-27.1,59.2-12.7,12.8-28.5,19.2-47.5,19.1-13.6,0-23.9-3.7-30.9-11.1s-10.5-18.2-10.5-32.6.3-7.9.9-12.2c.6-4.4,1.3-8.8,2.1-13.4,0,0,11-55,24.3-121.7,6.2-30.8-9.7-55.3-27.1-55.3h-132.1c-19.6,98.7-39.2,197.3-39.2,197.3-3.6,18.8-5.4,36.1-5.3,52,.7,46.7,14.3,81.7,40.9,105.1,26.5,23.4,61.6,35,105.3,35s36.7-3,55.5-9.2c18.7-6.2,36.6-15.7,53.8-28.4l-1.5,7.5c-4.4,25.5-14.3,45.2-29.7,59.1-15.4,13.9-39.4,20.9-72,21.1-25.3,0-49.8-3.8-73.6-11.1-23.8-7.2-44.2-17.2-61.2-29.9,0,0-62.4,54.9-131.1,81.8,92.7,52.4,186.4,85.5,262.9,85.7,74.6.7,135.9-17.8,184.1-55.3,48.1-37.5,80.7-98,97.7-181.6,0,0,32.8-164.5,65.5-329.1h-132.1c-23.9,0-43.2,24.8-49.3,55.2h0Z"/>
  <path class="st2" d="M2098.4,212.9s4.1-21.2,8.3-42.4h-160.4c-27.4,137.4-54.7,274.9-82.1,412.3h170.2l38.4-190.7c6-28.8,17.7-49.6,34.9-62.5s39.3-19.5,58.8-21.1,38.4,3.2,57.9,11.2c15.1-78.2,32.7-156.4,32.7-156.4-29.5,0-70.6,3.9-95.1,11.9s-45.7,20.6-63.6,37.8h0Z"/>
  <path class="st1" d="M538,153.1c6.8-32.1-13.7-63.6-45.6-70.3-32-6.7-63.3,13.8-70.1,45.9-6.8,32.1,13.7,63.6,45.6,70.3,32,6.7,63.3-13.8,70.1-45.9Z"/>
  <path class="st1" d="M191.7,499c42.4-44,84.7-88,127.1-132,24.7-25.7,27.8-65.3,7.4-94.5-52.5-75-104.9-149.9-157.4-224.9-8.7-12.4,6.7-27.8,19.1-19,137.3,96.9,274.6,193.7,412,290.6,20.5,14.5,16.9,46.1-6.4,55.5-136.4,55.3-272.8,110.7-409.1,166,2.4-13.9,4.9-27.7,7.3-41.6h0Z"/>
  <path class="st3" d="M540,141.4c6.8-32.1-13.7-63.6-45.6-70.3-32-6.7-63.3,13.8-70.1,45.9-6.8,32.1,13.7,63.6,45.6,70.3,32,6.7,63.3-13.8,70.1-45.9Z"/>
  <path class="st4" d="M171.2,35.6c-8.4-12,6.5-26.8,18.4-18.3l412,290.6c20.2,14.2,16.6,45.3-6.3,54.6l-408.3,165.7c1.2-6.6,2.3-13.3,3.5-19.9,1.2-6.9,2.4-13.8,3.6-20.7l127-131.9c24.9-25.8,28-65.7,7.4-95.1-52.5-75-104.9-149.9-157.4-224.9h0Z"/>
</svg>